<svg xmlns="http://www.w3.org/2000/svg" version="1.1" xmlns:xlink="http://www.w3.org/1999/xlink" xmlns:svgjs="http://svgjs.dev/svgjs" width="2000" height="1500" viewBox="0 0 2000 1500"><rect width="2000" height="1500" fill="#ff5858"></rect><g transform="matrix(0.75,0,0,0.75,249.090909090909,282.7536437246963)"><svg viewBox="0 0 396 247" data-background-color="#ff5858" preserveAspectRatio="xMidYMid meet" height="1247" width="2000" xmlns="http://www.w3.org/2000/svg" xmlns:xlink="http://www.w3.org/1999/xlink"><g id="tight-bounds" transform="matrix(1,0,0,1,0.2400000000000091,-0.09999999999999432)"><svg viewBox="0 0 395.52 247.2" height="247.2" width="395.52"><g><svg></svg></g><g><svg viewBox="0 0 395.52 247.2" height="247.2" width="395.52"><g transform="matrix(1,0,0,1,135.22352331606217,37.08)"><svg viewBox="0 0 125.07295336787566 173.04" height="173.04" width="125.07295336787566"><g><svg viewBox="0 0 125.07295336787566 173.04" height="173.04" width="125.07295336787566"><g><svg viewBox="0 0 125.07295336787566 173.04" height="173.04" width="125.07295336787566"><g><svg viewBox="0 0 125.07295336787566 173.04" height="173.04" width="125.07295336787566"><g id="textblocktransform"><svg viewBox="0 0 125.07295336787566 173.04" height="173.04" width="125.07295336787566" id="textblock"><g><svg viewBox="0 0 125.07295336787566 173.04" height="173.04" width="125.07295336787566"><g transform="matrix(1,0,0,1,0,0)"><svg width="125.07295336787566" viewBox="0.25 -24.049999237060547 27.899999618530273 38.599998474121094" height="173.04" data-palette-color="#ffffff"><path d="M13-24.05L10.65-10.75Q10.5-9.85 10.5-8.95L10.5-8.95Q10.5-6.55 13.2-6.55L13.2-6.55Q15.4-6.55 16.85-8.1L16.85-8.1 19.65-24.05 28.15-24.05 23.75 0.8Q22.65 7.15 18.73 10.85 14.8 14.55 9.75 14.55 4.7 14.55 2.48 12.7 0.25 10.85 0.25 7.85L0.25 7.85Q0.25 3.6 5.5 0.3L5.5 0.3Q2.65-0.4 1.9-2.55L1.9-2.55Q1.45-3.75 1.45-5.25 1.45-6.75 1.7-8.3L1.7-8.3 4.5-24.05 13-24.05ZM10.9 7.4L10.9 7.4Q14.15 7.4 15.15 1.5L15.15 1.5 15.65-1.4Q8.7 1.85 8.7 5.15L8.7 5.15Q8.7 6.15 9.28 6.78 9.85 7.4 10.9 7.4Z" opacity="1" transform="matrix(1,0,0,1,0,0)" fill="#ffffff" class="undefined-text-0" data-fill-palette-color="primary" id="text-0"></path></svg></g></svg></g></svg></g></svg></g></svg></g></svg></g></svg></g><g mask="url(#02a9265e-5e2d-4348-ac62-6d8322e51065)"><g transform="matrix(3.020969357781435, 0, 0, 3.020969357781435, 46.71153211092823, 1)"><svg version="1.1" xmlns="http://www.w3.org/2000/svg" xmlns:xlink="http://www.w3.org/1999/xlink" x="0" y="0" viewBox="0 0 100 81.16600036621094" enable-background="new 0 0 100 81.166" xml:space="preserve" width="100" height="81.16600036621094" class="icon-none" data-fill-palette-color="accent" id="none"><path d="M87.043 0H50 12.957L0 23.557l50 57.609 50-57.609L87.043 0zM83.635 6.345l7.59 13.801h-13.64L83.635 6.345zM77.168 6.043l-5.537 12.636L57.792 6.043H77.168zM64.273 20.146H50 35.727L50 7.113 64.273 20.146zM42.208 6.043L28.37 18.679 22.832 6.043H42.208zM16.365 6.345l6.05 13.801H8.775L16.365 6.345zM10.288 26.189h14.776l15.078 34.399L10.288 26.189zM31.663 26.189H50h18.338L50 68.022 31.663 26.189zM59.857 60.589l15.078-34.399h14.777L59.857 60.589z" fill="#ffffff" data-fill-palette-color="accent"></path></svg></g></g></svg></g><defs><mask id="02a9265e-5e2d-4348-ac62-6d8322e51065"><rect width="640" height="400" fill="white"></rect><rect width="137.58024870466323" height="254.74118208" fill="black" x="251.20987564766838" y="72.62940896" id="transform-me" transform="matrix(1,0,0,1,-122.24000000000001,-76.4)"></rect></mask></defs></svg><rect width="395.52" height="247.2" fill="none" stroke="none" visibility="hidden"></rect></g></svg></g></svg>